<?xml version="1.0" encoding="utf-8"?>
<!-- Generator: Adobe Illustrator 19.0.0, SVG Export Plug-In . SVG Version: 6.00 Build 0)  -->
<svg version="1.1" id="Layer_1" xmlns="http://www.w3.org/2000/svg" xmlns:xlink="http://www.w3.org/1999/xlink" x="0px" y="0px"
	 viewBox="0 0 96 96" style="enable-background:new 0 0 96 96;" xml:space="preserve">
<style type="text/css">
	.st0{fill:#333333;}
</style>
<g id="XMLID_2_">
	<path id="XMLID_7_" class="st0" d="M35.5,65.5c0,0.7-0.2,1.3-0.7,1.8S33.7,68,33,68c-0.7,0-1.3-0.2-1.8-0.7s-0.7-1.1-0.7-1.8
		s0.2-1.3,0.7-1.8S32.3,63,33,63c0.7,0,1.3,0.2,1.8,0.7S35.5,64.8,35.5,65.5z M75.5,67.9c0,3.2-1,5.6-2.9,7.4S68.2,78,65.1,78H30.9
		c-3.2,0-5.7-0.9-7.6-2.7c-1.9-1.8-2.9-4.3-2.9-7.4c0-1.8,0.1-3.5,0.2-5.1s0.5-3.4,0.9-5.4s1.1-3.7,1.9-5.2c0.8-1.5,1.8-2.8,3.2-4
		s2.9-2,4.7-2.4c-0.6,1.4-0.9,2.9-0.9,4.7v7.9c-1.5,0.5-2.7,1.4-3.6,2.7s-1.4,2.7-1.4,4.3c0,2.1,0.7,3.9,2.2,5.3S30.9,73,33,73
		c2.1,0,3.9-0.7,5.3-2.2s2.2-3.2,2.2-5.3c0-1.6-0.5-3-1.4-4.3S37,59,35.5,58.4v-7.9c0-1.6,0.3-2.8,1-3.6c3.4,2.7,7.3,4.1,11.5,4.1
		s8.1-1.4,11.5-4.1c0.7,0.8,1,2,1,3.6V53c-2.8,0-5.1,1-7.1,2.9s-2.9,4.3-2.9,7.1v3.5c-0.8,0.8-1.3,1.7-1.3,2.8c0,1,0.4,1.9,1.1,2.7
		S52,73,53,73c1,0,1.9-0.4,2.7-1.1s1.1-1.6,1.1-2.7c0-1.1-0.4-2-1.3-2.8V63c0-1.4,0.5-2.5,1.5-3.5s2.2-1.5,3.5-1.5s2.5,0.5,3.5,1.5
		s1.5,2.2,1.5,3.5v3.5c-0.8,0.8-1.3,1.7-1.3,2.8c0,1,0.4,1.9,1.1,2.7S67,73,68,73s1.9-0.4,2.7-1.1s1.1-1.6,1.1-2.7
		c0-1.1-0.4-2-1.3-2.8V63c0-1.8-0.4-3.4-1.3-5s-2.1-2.8-3.7-3.7c0-0.3,0-0.8,0-1.7c0-0.8,0-1.5,0-1.9s0-0.9-0.1-1.6
		s-0.1-1.3-0.3-1.8s-0.3-1.1-0.5-1.6c1.8,0.4,3.3,1.2,4.7,2.4s2.4,2.5,3.2,4c0.8,1.5,1.4,3.2,1.9,5.2s0.8,3.8,0.9,5.4
		S75.5,66.1,75.5,67.9z M63,33c0,4.1-1.5,7.7-4.4,10.6S52.1,48,48,48s-7.7-1.5-10.6-4.4S33,37.1,33,33s1.5-7.7,4.4-10.6
		S43.9,18,48,18s7.7,1.5,10.6,4.4S63,28.9,63,33z"/>
</g>
</svg>
